<svg xmlns="http://www.w3.org/2000/svg" viewBox="0 0 300 350">
  <!-- Stylized lipstick kiss -->
  <g transform="translate(150, 100)">
    <!-- Kiss mark shape -->
    <path d="M 0 0 Q -30 -20 -45 -10 Q -50 0 -45 15 Q -30 30 0 50 Q 30 30 45 15 Q 50 0 45 -10 Q 30 -20 0 0 Z"
          fill="#E94B3C" opacity="0.85"/>
    <path d="M -15 5 Q -20 15 -10 25 Q 0 30 10 25 Q 20 15 15 5"
          fill="white" opacity="0.4"/>

    <!-- Texture layers -->
    <ellipse cx="-20" cy="5" rx="15" ry="20" fill="#C44569" opacity="0.3" transform="rotate(-20 -20 5)"/>
    <ellipse cx="20" cy="5" rx="15" ry="20" fill="#C44569" opacity="0.3" transform="rotate(20 20 5)"/>
  </g>

  <!-- Text with heart -->
  <text x="150" y="230" font-family="'Brush Script MT', cursive, serif" font-size="56" fill="#E94B3C" text-anchor="middle" font-style="italic">BeautyCita</text>
  <path d="M 100 255 Q 100 245 107 245 Q 112 245 115 250 Q 118 245 123 245 Q 130 245 130 255 Q 130 265 115 278 Q 100 265 100 255 Z"
        fill="#FF6B9D"/>
  <text x="150" y="305" font-family="Arial, sans-serif" font-size="14" fill="#7F8C8D" text-anchor="middle" letter-spacing="2">BOOK YOUR BEAUTY</text>
</svg>