<?xml version="1.0" encoding="UTF-8"?>
<svg xmlns="http://www.w3.org/2000/svg" viewBox="0 0 100 100">
  <!-- BeautyCita Logo - Smart Mirror Design -->
  <!-- A beauty mirror shape representing reflection and self-care, with a tech-inspired minimalist aesthetic -->
  <defs>
    <linearGradient id="beautyCitaGradient" x1="0%" y1="0%" x2="100%" y2="100%">
      <stop offset="0%" style="stop-color:#ec4899;stop-opacity:1" />
      <stop offset="50%" style="stop-color:#a855f7;stop-opacity:1" />
      <stop offset="100%" style="stop-color:#3b82f6;stop-opacity:1" />
    </linearGradient>
  </defs>

  <path
    d="M50 10
       C68.225 10 83 24.775 83 43
       L83 65
       C83 78.255 72.255 89 59 89
       L41 89
       C27.745 89 17 78.255 17 65
       L17 43
       C17 24.775 31.775 10 50 10
       Z

       M50 22
       C38.402 22 29 31.402 29 43
       L29 62
       C29 68.627 34.373 74 41 74
       L59 74
       C65.627 74 71 68.627 71 62
       L71 43
       C71 31.402 61.598 22 50 22
       Z

       M44 38
       L56 38
       C58.209 38 60 39.791 60 42
       L60 42
       C60 44.209 58.209 46 56 46
       L44 46
       C41.791 46 40 44.209 40 42
       L40 42
       C40 39.791 41.791 38 44 38
       Z"
    fill="url(#beautyCitaGradient)"
    fill-rule="evenodd"
  />
</svg>