<svg xmlns="http://www.w3.org/2000/svg" viewBox="0 0 300 350">
  <!-- Interlocking B and C -->
  <g transform="translate(150, 120)">
    <!-- Circle container -->
    <circle cx="0" cy="0" r="85" fill="none" stroke="#2C3E50" stroke-width="4"/>
    <circle cx="0" cy="0" r="95" fill="none" stroke="#2C3E50" stroke-width="1"/>

    <!-- B letter -->
    <path d="M -40 -60 L -40 60 L 10 60 C 35 60 50 45 50 25 C 50 10 42 0 30 -5 C 40 -10 45 -20 45 -35 C 45 -52 32 -60 10 -60 Z M -20 -45 L 8 -45 C 20 -45 25 -40 25 -32 C 25 -24 20 -18 8 -18 L -20 -18 Z M -20 -3 L 10 -3 C 23 -3 30 3 30 18 C 30 33 23 45 10 45 L -20 45 Z"
          fill="#FF6B9D"/>

    <!-- C letter overlapping -->
    <path d="M 35 -55 C 55 -55 68 -45 70 -30 L 50 -25 C 48 -35 45 -40 35 -40 C 20 -40 10 -25 10 0 C 10 25 20 40 35 40 C 45 40 48 35 50 25 L 70 30 C 68 45 55 55 35 55 C 8 55 -10 35 -10 0 C -10 -35 8 -55 35 -55 Z"
          fill="#2C3E50" opacity="0.9"/>
  </g>

  <!-- Text -->
  <text x="150" y="260" font-family="'Didot', 'Bodoni MT', Georgia, serif" font-size="42" fill="#2C3E50" text-anchor="middle" font-weight="300" letter-spacing="6">BEAUTYCITA</text>
  <text x="150" y="290" font-family="Arial, sans-serif" font-size="12" fill="#7F8C8D" text-anchor="middle" letter-spacing="3">SINCE 2025</text>
</svg>