<svg xmlns="http://www.w3.org/2000/svg" viewBox="0 0 300 350">
  <!-- Abstract B/C combination -->
  <path d="M 80 100 L 80 250 L 150 250 C 180 250 200 230 200 200 C 200 180 190 165 175 160 C 185 155 190 145 190 130 C 190 105 170 100 150 100 Z M 105 120 L 145 120 C 160 120 165 125 165 135 C 165 145 160 150 145 150 L 105 150 Z M 105 170 L 150 170 C 165 170 175 175 175 195 C 175 215 165 230 150 230 L 105 230 Z"
        fill="#2C3E50"/>

  <!-- Makeup brush stroke -->
  <path d="M 210 120 Q 240 140 260 180 Q 270 210 265 235" stroke="#FF6B9D" stroke-width="18" fill="none" stroke-linecap="round"/>
  <circle cx="268" cy="242" r="8" fill="#FF6B9D"/>

  <!-- Text -->
  <text x="150" y="310" font-family="'Helvetica Neue', Arial, sans-serif" font-size="52" fill="#2C3E50" text-anchor="middle" font-weight="200">beautycita</text>
</svg>